# xmcd
#
# Track frame offsets:
#	150
#	17669
#	35690
#	56560
#	75928
#	88685
#	107126
#	127836
#	139571
#	139878
#	140185
#	140492
#	140799
#	141107
#	141414
#	141721
#	142028
#	142335
#	142642
#	142949
#	143256
#	143563
#	143870
#	144177
#	144484
#	144791
#	145098
#	145406
#	145713
#	146020
#	146327
#	146634
#	146941
#	147247
#	147554
#	147861
#	148168
#	148475
#	148782
#	149089
#	149396
#	149703
#	150011
#	150318
#	150625
#	150932
#	151239
#	151546
#	151853
#	152160
#	152467
#	152774
#	153081
#	153388
#	153695
#	154002
#	154309
#	154617
#	154924
#	155231
#	155538
#	155845
#	156152
#	156459
#	156766
#	157073
#	157379
#	157686
#	157993
#	158300
#	158607
#	158914
#	159222
#	159529
#	159836
#	160143
#	160450
#
# Disc length: 2442 seconds
#
# Revision: 1
# Processed by: cddbd v1.5.2PL0 Copyright (c) Steve Scherf et al.
# Submitted via: audiograbber 1.83.01
#
DISCID=5a09884d
DTITLE=Black Anvil - Time Insults The Mind
DYEAR=2008
DGENRE=black metal
TTITLE0=Margin For Terror
TTITLE1=Ten Talons Deep
TTITLE2=Deathsomnia
TTITLE3=On This Day Death
TTITLE4=Release The Kraken
TTITLE5=And You Thought You Knew Pain!
TTITLE6=777
TTITLE7=L.T.H.LT.K.
TTITLE8=(empty)
TTITLE9=(empty)
TTITLE10=(empty)
TTITLE11=(empty)
TTITLE12=(empty)
TTITLE13=(empty)
TTITLE14=(empty)
TTITLE15=(empty)
TTITLE16=(empty)
TTITLE17=(empty)
TTITLE18=(empty)
TTITLE19=(empty)
TTITLE20=(empty)
TTITLE21=(empty)
TTITLE22=(empty)
TTITLE23=(empty)
TTITLE24=(empty)
TTITLE25=(empty)
TTITLE26=(empty)
TTITLE27=(empty)
TTITLE28=(empty)
TTITLE29=(empty)
TTITLE30=(empty)
TTITLE31=(empty)
TTITLE32=(empty)
TTITLE33=(empty)
TTITLE34=(empty)
TTITLE35=(empty)
TTITLE36=(empty)
TTITLE37=(empty)
TTITLE38=(empty)
TTITLE39=(empty)
TTITLE40=(empty)
TTITLE41=(empty)
TTITLE42=(empty)
TTITLE43=(empty)
TTITLE44=(empty)
TTITLE45=(empty)
TTITLE46=(empty)
TTITLE47=(empty)
TTITLE48=(empty)
TTITLE49=(empty)
TTITLE50=(empty)
TTITLE51=(empty)
TTITLE52=(empty)
TTITLE53=(empty)
TTITLE54=(empty)
TTITLE55=(empty)
TTITLE56=(empty)
TTITLE57=(empty)
TTITLE58=(empty)
TTITLE59=(empty)
TTITLE60=(empty)
TTITLE61=(empty)
TTITLE62=(empty)
TTITLE63=(empty)
TTITLE64=(empty)
TTITLE65=(empty)
TTITLE66=(empty)
TTITLE67=(empty)
TTITLE68=(empty)
TTITLE69=(empty)
TTITLE70=(empty)
TTITLE71=(empty)
TTITLE72=(empty)
TTITLE73=(empty)
TTITLE74=(empty)
TTITLE75=(empty)
TTITLE76=Dethroned Emperor
EXTD=
EXTT0=
EXTT1=
EXTT2=
EXTT3=
EXTT4=
EXTT5=
EXTT6=
EXTT7=
EXTT8=
EXTT9=
EXTT10=
EXTT11=
EXTT12=
EXTT13=
EXTT14=
EXTT15=
EXTT16=
EXTT17=
EXTT18=
EXTT19=
EXTT20=
EXTT21=
EXTT22=
EXTT23=
EXTT24=
EXTT25=
EXTT26=
EXTT27=
EXTT28=
EXTT29=
EXTT30=
EXTT31=
EXTT32=
EXTT33=
EXTT34=
EXTT35=
EXTT36=
EXTT37=
EXTT38=
EXTT39=
EXTT40=
EXTT41=
EXTT42=
EXTT43=
EXTT44=
EXTT45=
EXTT46=
EXTT47=
EXTT48=
EXTT49=
EXTT50=
EXTT51=
EXTT52=
EXTT53=
EXTT54=
EXTT55=
EXTT56=
EXTT57=
EXTT58=
EXTT59=
EXTT60=
EXTT61=
EXTT62=
EXTT63=
EXTT64=
EXTT65=
EXTT66=
EXTT67=
EXTT68=
EXTT69=
EXTT70=
EXTT71=
EXTT72=
EXTT73=
EXTT74=
EXTT75=
EXTT76=
PLAYORDER=
